<?xml version="1.0" standalone="no"?><!DOCTYPE svg PUBLIC "-//W3C//DTD SVG 1.1//EN" "http://www.w3.org/Graphics/SVG/1.1/DTD/svg11.dtd"><svg t="1603262562737" class="icon" viewBox="0 0 1024 1024" version="1.1" xmlns="http://www.w3.org/2000/svg" p-id="1145" data-darkreader-inline-fill="" xmlns:xlink="http://www.w3.org/1999/xlink" width="200" height="200"><defs><style type="text/css"></style></defs><path d="M877.714286 0H265.142857c-5.028571 0-9.142857 4.114286-9.142857 9.142857v64c0 5.028571 4.114286 9.142857 9.142857 9.142857h566.857143v786.285715c0 5.028571 4.114286 9.142857 9.142857 9.142857h64c5.028571 0 9.142857-4.114286 9.142857-9.142857V36.571429c0-20.228571-16.342857-36.571429-36.571428-36.571429zM731.428571 146.285714H146.285714c-20.228571 0-36.571429 16.342857-36.571428 36.571429v606.514286c0 9.714286 3.885714 18.971429 10.742857 25.828571l198.057143 198.057143c2.514286 2.514286 5.371429 4.571429 8.457143 6.285714v2.171429h4.8c4 1.485714 8.228571 2.285714 12.571428 2.285714H731.428571c20.228571 0 36.571429-16.342857 36.571429-36.571429V182.857143c0-20.228571-16.342857-36.571429-36.571429-36.571429zM326.857143 905.371429L228.457143 806.857143H326.857143v98.514286zM685.714286 941.714286H400V779.428571c0-25.257143-20.457143-45.714286-45.714286-45.714285H192V228.571429h493.714286v713.142857z" p-id="1146"></path></svg>